# xmcd
#
# Track frame offsets: 
#        150
#        15348
#        35544
#        50820
#        64935
#        79016
#        89433
#        102576
#        110402
#        130696
#        142476
#        151046
#        167421
#        181979
#        201631
#        218090
#        236568
#        246376
#        274125
#        288764
#
# Disc length: 3981 seconds
#
# Revision: 0
# Processed by: cddbd v1.5.2PL0 Copyright (c) Steve Scherf et al.
# Submitted via: ExactAudioCopy v1.1
#
DISCID=250f8b14
DTITLE=Herman Van Veen - 100 - CD 5
DYEAR=2001
DGENRE=Cabaret
TTITLE0=Andere Namen
TTITLE1=Voor Marie-Louise
TTITLE2=De Ogen Van Mijn Moeder
TTITLE3=Nooit Of Nooit
TTITLE4=Elke Trein Wil Naar Parijs
TTITLE5=Huiswerk
TTITLE6=De Vaders
TTITLE7=Het Eerste Meisje
TTITLE8=Kyrie Eleison
TTITLE9=Alsof Het Avond Is
TTITLE10=De Voorkant
TTITLE11=Zal Je Vangen
TTITLE12=Onderaan De Dijk
TTITLE13=Pijpenstelen
TTITLE14=Bij Mij
TTITLE15=Herman Van Veen and Trijntje Oosterhuis - Ciao
TTITLE16=Ik Hou Van Jou
TTITLE17=Herman Van Veen and Trijntje Oosterhuis - Naar Huis
TTITLE18=Mannen, Mannen
TTITLE19=Pom Pom Pom
EXTD=
EXTT0=
EXTT1=
EXTT2=
EXTT3=
EXTT4=
EXTT5=
EXTT6=
EXTT7=
EXTT8=
EXTT9=
EXTT10=
EXTT11=
EXTT12=
EXTT13=
EXTT14=
EXTT15=
EXTT16=
EXTT17=
EXTT18=
EXTT19=
PLAYORDER=
